<mxfile host="app.diagrams.net" modified="2022-03-09T05:45:01.977Z" agent="5.0 (Windows NT 10.0; Win64; x64) AppleWebKit/537.36 (KHTML, like Gecko) Chrome/99.0.4844.51 Safari/537.36 Edg/99.0.1150.36" etag="nlwSjypnncdYCJoYkJfU" version="16.6.6" type="github">
  <diagram id="_G1xeEsAA8JANmBD5S7e" name="Page-1">
    <mxGraphModel dx="509" dy="569" grid="0" gridSize="10" guides="1" tooltips="1" connect="1" arrows="1" fold="1" page="1" pageScale="1" pageWidth="827" pageHeight="1169" math="0" shadow="0">
      <root>
        <mxCell id="0" />
        <mxCell id="1" parent="0" />
        <mxCell id="mEooZwxwVVqKLYLNyPsu-7" style="edgeStyle=orthogonalEdgeStyle;rounded=0;orthogonalLoop=1;jettySize=auto;html=1;exitX=1;exitY=0.5;exitDx=0;exitDy=0;entryX=0;entryY=0.5;entryDx=0;entryDy=0;entryPerimeter=0;" parent="1" source="mEooZwxwVVqKLYLNyPsu-1" target="mEooZwxwVVqKLYLNyPsu-3" edge="1">
          <mxGeometry relative="1" as="geometry">
            <Array as="points">
              <mxPoint x="336" y="240" />
              <mxPoint x="382" y="240" />
              <mxPoint x="382" y="305" />
            </Array>
          </mxGeometry>
        </mxCell>
        <mxCell id="mEooZwxwVVqKLYLNyPsu-11" style="edgeStyle=orthogonalEdgeStyle;rounded=0;orthogonalLoop=1;jettySize=auto;html=1;exitX=0.5;exitY=0;exitDx=0;exitDy=0;entryX=0.5;entryY=0;entryDx=0;entryDy=0;entryPerimeter=0;" parent="1" source="mEooZwxwVVqKLYLNyPsu-1" target="mEooZwxwVVqKLYLNyPsu-3" edge="1">
          <mxGeometry relative="1" as="geometry" />
        </mxCell>
        <mxCell id="mEooZwxwVVqKLYLNyPsu-1" value="网页端&lt;br&gt;（管理员）" style="rounded=0;whiteSpace=wrap;html=1;" parent="1" vertex="1">
          <mxGeometry x="254" y="212" width="82" height="60" as="geometry" />
        </mxCell>
        <mxCell id="mEooZwxwVVqKLYLNyPsu-4" style="edgeStyle=orthogonalEdgeStyle;rounded=0;orthogonalLoop=1;jettySize=auto;html=1;exitX=1;exitY=0.5;exitDx=0;exitDy=0;" parent="1" source="mEooZwxwVVqKLYLNyPsu-2" target="mEooZwxwVVqKLYLNyPsu-3" edge="1">
          <mxGeometry relative="1" as="geometry">
            <Array as="points">
              <mxPoint x="336" y="353" />
              <mxPoint x="382" y="353" />
              <mxPoint x="382" y="305" />
            </Array>
          </mxGeometry>
        </mxCell>
        <mxCell id="mEooZwxwVVqKLYLNyPsu-2" value="网页端&lt;br&gt;（普通用户）" style="rounded=0;whiteSpace=wrap;html=1;" parent="1" vertex="1">
          <mxGeometry x="254" y="320" width="82" height="60" as="geometry" />
        </mxCell>
        <mxCell id="mEooZwxwVVqKLYLNyPsu-8" style="edgeStyle=orthogonalEdgeStyle;rounded=0;orthogonalLoop=1;jettySize=auto;html=1;exitX=0;exitY=0;exitDx=0;exitDy=63.75;exitPerimeter=0;entryX=0;entryY=0.5;entryDx=0;entryDy=0;" parent="1" source="mEooZwxwVVqKLYLNyPsu-3" target="mEooZwxwVVqKLYLNyPsu-2" edge="1">
          <mxGeometry relative="1" as="geometry">
            <Array as="points">
              <mxPoint x="419" y="321" />
              <mxPoint x="419" y="410" />
              <mxPoint x="234" y="410" />
              <mxPoint x="234" y="350" />
            </Array>
          </mxGeometry>
        </mxCell>
        <mxCell id="mEooZwxwVVqKLYLNyPsu-9" style="edgeStyle=orthogonalEdgeStyle;rounded=0;orthogonalLoop=1;jettySize=auto;html=1;exitX=0;exitY=0;exitDx=0;exitDy=63.75;exitPerimeter=0;entryX=0;entryY=0.5;entryDx=0;entryDy=0;" parent="1" source="mEooZwxwVVqKLYLNyPsu-3" target="mEooZwxwVVqKLYLNyPsu-1" edge="1">
          <mxGeometry relative="1" as="geometry">
            <Array as="points">
              <mxPoint x="419" y="321" />
              <mxPoint x="419" y="411" />
              <mxPoint x="234" y="411" />
              <mxPoint x="234" y="242" />
            </Array>
          </mxGeometry>
        </mxCell>
        <mxCell id="mEooZwxwVVqKLYLNyPsu-17" style="edgeStyle=orthogonalEdgeStyle;rounded=0;orthogonalLoop=1;jettySize=auto;html=1;exitX=0.5;exitY=1;exitDx=0;exitDy=0;exitPerimeter=0;entryX=0.5;entryY=0;entryDx=0;entryDy=0;fontFamily=Comic Sans MS;fontSize=24;" parent="1" source="mEooZwxwVVqKLYLNyPsu-3" target="mEooZwxwVVqKLYLNyPsu-13" edge="1">
          <mxGeometry relative="1" as="geometry" />
        </mxCell>
        <mxCell id="mEooZwxwVVqKLYLNyPsu-18" style="edgeStyle=orthogonalEdgeStyle;rounded=0;orthogonalLoop=1;jettySize=auto;html=1;exitX=0.5;exitY=1;exitDx=0;exitDy=0;exitPerimeter=0;fontFamily=Comic Sans MS;fontSize=24;" parent="1" source="mEooZwxwVVqKLYLNyPsu-3" target="mEooZwxwVVqKLYLNyPsu-14" edge="1">
          <mxGeometry relative="1" as="geometry" />
        </mxCell>
        <mxCell id="mEooZwxwVVqKLYLNyPsu-19" style="edgeStyle=orthogonalEdgeStyle;rounded=0;orthogonalLoop=1;jettySize=auto;html=1;exitX=0.5;exitY=1;exitDx=0;exitDy=0;exitPerimeter=0;fontFamily=Comic Sans MS;fontSize=24;" parent="1" source="mEooZwxwVVqKLYLNyPsu-3" target="mEooZwxwVVqKLYLNyPsu-15" edge="1">
          <mxGeometry relative="1" as="geometry" />
        </mxCell>
        <mxCell id="mEooZwxwVVqKLYLNyPsu-3" value="" style="shape=cylinder3;whiteSpace=wrap;html=1;boundedLbl=1;backgroundOutline=1;size=15;" parent="1" vertex="1">
          <mxGeometry x="510" y="257" width="108" height="95" as="geometry" />
        </mxCell>
        <mxCell id="mEooZwxwVVqKLYLNyPsu-6" value="请求备份任务" style="text;html=1;resizable=0;autosize=1;align=center;verticalAlign=middle;points=[];fillColor=none;strokeColor=none;rounded=0;" parent="1" vertex="1">
          <mxGeometry x="396" y="283" width="82" height="18" as="geometry" />
        </mxCell>
        <mxCell id="mEooZwxwVVqKLYLNyPsu-10" value="发送请求固件" style="text;html=1;resizable=0;autosize=1;align=center;verticalAlign=middle;points=[];fillColor=none;strokeColor=none;rounded=0;" parent="1" vertex="1">
          <mxGeometry x="280" y="415" width="82" height="18" as="geometry" />
        </mxCell>
        <mxCell id="mEooZwxwVVqKLYLNyPsu-12" value="配置备份策略" style="text;html=1;resizable=0;autosize=1;align=center;verticalAlign=middle;points=[];fillColor=none;strokeColor=none;rounded=0;" parent="1" vertex="1">
          <mxGeometry x="385" y="169" width="82" height="18" as="geometry" />
        </mxCell>
        <mxCell id="mEooZwxwVVqKLYLNyPsu-28" style="edgeStyle=orthogonalEdgeStyle;rounded=0;orthogonalLoop=1;jettySize=auto;html=1;exitX=0.5;exitY=1;exitDx=0;exitDy=0;fontFamily=Comic Sans MS;fontSize=24;endArrow=none;endFill=0;elbow=vertical;" parent="1" source="mEooZwxwVVqKLYLNyPsu-13" edge="1">
          <mxGeometry relative="1" as="geometry">
            <mxPoint x="538.7999877929688" y="611.8000183105469" as="targetPoint" />
          </mxGeometry>
        </mxCell>
        <mxCell id="mEooZwxwVVqKLYLNyPsu-41" style="edgeStyle=orthogonalEdgeStyle;rounded=0;orthogonalLoop=1;jettySize=auto;html=1;exitX=0;exitY=0.5;exitDx=0;exitDy=0;fontFamily=Comic Sans MS;fontSize=24;endArrow=classic;endFill=1;elbow=vertical;" parent="1" source="mEooZwxwVVqKLYLNyPsu-13" target="mEooZwxwVVqKLYLNyPsu-37" edge="1">
          <mxGeometry relative="1" as="geometry">
            <Array as="points">
              <mxPoint x="339" y="526" />
              <mxPoint x="339" y="619" />
              <mxPoint x="285" y="619" />
            </Array>
          </mxGeometry>
        </mxCell>
        <mxCell id="mEooZwxwVVqKLYLNyPsu-42" style="edgeStyle=orthogonalEdgeStyle;rounded=0;orthogonalLoop=1;jettySize=auto;html=1;exitX=0;exitY=0.5;exitDx=0;exitDy=0;entryX=0.5;entryY=0;entryDx=0;entryDy=0;fontFamily=Comic Sans MS;fontSize=24;endArrow=classic;endFill=1;elbow=vertical;" parent="1" source="mEooZwxwVVqKLYLNyPsu-13" target="mEooZwxwVVqKLYLNyPsu-38" edge="1">
          <mxGeometry relative="1" as="geometry" />
        </mxCell>
        <mxCell id="mEooZwxwVVqKLYLNyPsu-43" style="edgeStyle=orthogonalEdgeStyle;rounded=0;orthogonalLoop=1;jettySize=auto;html=1;exitX=0;exitY=0.5;exitDx=0;exitDy=0;fontFamily=Comic Sans MS;fontSize=24;endArrow=classic;endFill=1;elbow=vertical;" parent="1" source="mEooZwxwVVqKLYLNyPsu-13" target="mEooZwxwVVqKLYLNyPsu-39" edge="1">
          <mxGeometry relative="1" as="geometry" />
        </mxCell>
        <mxCell id="mEooZwxwVVqKLYLNyPsu-13" value="任务代理" style="rounded=0;whiteSpace=wrap;html=1;" parent="1" vertex="1">
          <mxGeometry x="359" y="496" width="82" height="60" as="geometry" />
        </mxCell>
        <mxCell id="mEooZwxwVVqKLYLNyPsu-29" style="edgeStyle=orthogonalEdgeStyle;rounded=0;orthogonalLoop=1;jettySize=auto;html=1;exitX=0.5;exitY=1;exitDx=0;exitDy=0;fontFamily=Comic Sans MS;fontSize=24;endArrow=none;endFill=0;elbow=vertical;" parent="1" source="mEooZwxwVVqKLYLNyPsu-14" edge="1">
          <mxGeometry relative="1" as="geometry">
            <mxPoint x="538.7999877929688" y="611.8000183105469" as="targetPoint" />
          </mxGeometry>
        </mxCell>
        <mxCell id="mEooZwxwVVqKLYLNyPsu-14" value="任务代理" style="rounded=0;whiteSpace=wrap;html=1;" parent="1" vertex="1">
          <mxGeometry x="474" y="496" width="82" height="60" as="geometry" />
        </mxCell>
        <mxCell id="mEooZwxwVVqKLYLNyPsu-30" style="edgeStyle=orthogonalEdgeStyle;rounded=0;orthogonalLoop=1;jettySize=auto;html=1;exitX=0.5;exitY=1;exitDx=0;exitDy=0;fontFamily=Comic Sans MS;fontSize=24;endArrow=none;endFill=0;elbow=vertical;" parent="1" source="mEooZwxwVVqKLYLNyPsu-15" edge="1">
          <mxGeometry relative="1" as="geometry">
            <mxPoint x="539" y="611" as="targetPoint" />
          </mxGeometry>
        </mxCell>
        <mxCell id="mEooZwxwVVqKLYLNyPsu-15" value="任务代理" style="rounded=0;whiteSpace=wrap;html=1;" parent="1" vertex="1">
          <mxGeometry x="641" y="496" width="82" height="60" as="geometry" />
        </mxCell>
        <mxCell id="mEooZwxwVVqKLYLNyPsu-16" value="&lt;font face=&quot;Comic Sans MS&quot; style=&quot;font-size: 24px&quot;&gt;……&lt;/font&gt;" style="text;html=1;resizable=0;autosize=1;align=center;verticalAlign=middle;points=[];fillColor=none;strokeColor=none;rounded=0;" parent="1" vertex="1">
          <mxGeometry x="577" y="505" width="43" height="23" as="geometry" />
        </mxCell>
        <mxCell id="mEooZwxwVVqKLYLNyPsu-32" style="edgeStyle=orthogonalEdgeStyle;rounded=0;orthogonalLoop=1;jettySize=auto;html=1;exitX=0.5;exitY=0;exitDx=0;exitDy=0;entryX=1;entryY=0.5;entryDx=0;entryDy=0;entryPerimeter=0;fontFamily=Comic Sans MS;fontSize=24;endArrow=classic;endFill=1;elbow=vertical;" parent="1" target="mEooZwxwVVqKLYLNyPsu-3" edge="1">
          <mxGeometry relative="1" as="geometry">
            <mxPoint x="539" y="610" as="sourcePoint" />
            <Array as="points">
              <mxPoint x="539" y="612" />
              <mxPoint x="748" y="612" />
              <mxPoint x="748" y="305" />
            </Array>
          </mxGeometry>
        </mxCell>
        <mxCell id="mEooZwxwVVqKLYLNyPsu-34" value="下发任务信息" style="text;html=1;resizable=0;autosize=1;align=center;verticalAlign=middle;points=[];fillColor=none;strokeColor=none;rounded=0;" parent="1" vertex="1">
          <mxGeometry x="570" y="399" width="82" height="18" as="geometry" />
        </mxCell>
        <mxCell id="mEooZwxwVVqKLYLNyPsu-36" value="上传固件" style="text;html=1;resizable=0;autosize=1;align=center;verticalAlign=middle;points=[];fillColor=none;strokeColor=none;rounded=0;" parent="1" vertex="1">
          <mxGeometry x="660" y="283" width="58" height="18" as="geometry" />
        </mxCell>
        <mxCell id="mEooZwxwVVqKLYLNyPsu-37" value="工业设备固件" style="rounded=0;whiteSpace=wrap;html=1;" parent="1" vertex="1">
          <mxGeometry x="247" y="682" width="82" height="60" as="geometry" />
        </mxCell>
        <mxCell id="mEooZwxwVVqKLYLNyPsu-38" value="工业设备固件" style="rounded=0;whiteSpace=wrap;html=1;" parent="1" vertex="1">
          <mxGeometry x="356" y="682" width="82" height="60" as="geometry" />
        </mxCell>
        <mxCell id="mEooZwxwVVqKLYLNyPsu-39" value="工业设备固件" style="rounded=0;whiteSpace=wrap;html=1;" parent="1" vertex="1">
          <mxGeometry x="513" y="682" width="82" height="60" as="geometry" />
        </mxCell>
        <mxCell id="mEooZwxwVVqKLYLNyPsu-40" value="&lt;font face=&quot;Comic Sans MS&quot; style=&quot;font-size: 24px&quot;&gt;……&lt;/font&gt;" style="text;html=1;resizable=0;autosize=1;align=center;verticalAlign=middle;points=[];fillColor=none;strokeColor=none;rounded=0;" parent="1" vertex="1">
          <mxGeometry x="454" y="691" width="43" height="23" as="geometry" />
        </mxCell>
        <mxCell id="mEooZwxwVVqKLYLNyPsu-44" value="备份任务" style="text;html=1;resizable=0;autosize=1;align=center;verticalAlign=middle;points=[];fillColor=none;strokeColor=none;rounded=0;" parent="1" vertex="1">
          <mxGeometry x="266" y="597" width="58" height="18" as="geometry" />
        </mxCell>
        <mxCell id="A042u1E6h-MGTahwksuI-1" value="策略调度器" style="rounded=0;whiteSpace=wrap;html=1;" vertex="1" parent="1">
          <mxGeometry x="529" y="290" width="70" height="27" as="geometry" />
        </mxCell>
        <mxCell id="A042u1E6h-MGTahwksuI-2" value="固件管理器" style="rounded=0;whiteSpace=wrap;html=1;" vertex="1" parent="1">
          <mxGeometry x="529" y="317" width="70" height="27" as="geometry" />
        </mxCell>
      </root>
    </mxGraphModel>
  </diagram>
</mxfile>
